<?xml version="1.0" standalone="no"?><!DOCTYPE svg PUBLIC "-//W3C//DTD SVG 1.1//EN" "http://www.w3.org/Graphics/SVG/1.1/DTD/svg11.dtd"><svg t="1591086957056" class="icon" viewBox="0 0 1024 1024" version="1.1" xmlns="http://www.w3.org/2000/svg" p-id="4151" xmlns:xlink="http://www.w3.org/1999/xlink" width="200" height="200"><defs><style type="text/css"></style></defs><path d="M883.5 96.2H140c-6.6 0-12 5.4-12 12V916c0 6.6 5.4 12 12 12h743.5c6.6 0 12-5.4 12-12l0.1-807.8c-0.1-6.6-5.5-12-12.1-12z m-685.5 64h627.5c3.3 0 6 2.7 6 6v116c0 3.3-2.7 6-6 6H198c-3.3 0-6-2.7-6-6v-116c0-3.3 2.7-6 6-6zM825.4 864H198c-3.3 0-6-2.7-6-6V742c0-3.3 2.7-6 6-6h627.5c3.3 0 6 2.7 6 6v116c-0.1 3.4-2.7 6-6.1 6z m0-192H198c-3.3 0-6-2.7-6-6V551.4c0-3.3 2.7-6 6-6h627.5c3.3 0 6 2.7 6 6V666c-0.1 3.4-2.7 6-6.1 6zM192 474V359.4c0-3.3 2.7-6 6-6h627.5c3.3 0 6 2.7 6 6V474c0 3.3-2.7 6-6 6H198c-3.4 0-6-2.6-6-6z" p-id="4152"></path><path d="M265.437891 246.56086a32 32 0 1 0 45.299044-45.210581 32 32 0 1 0-45.299044 45.210581Z" p-id="4153"></path><path d="M265.436844 438.556329a32 32 0 1 0 45.299044-45.210581 32 32 0 1 0-45.299044 45.210581Z" p-id="4154"></path><path d="M265.493962 630.627162a32 32 0 1 0 45.209791-45.299833 32 32 0 1 0-45.209791 45.299833Z" p-id="4155"></path><path d="M265.430553 822.654293a32 32 0 1 0 45.20979-45.299833 32 32 0 1 0-45.20979 45.299833Z" p-id="4156"></path></svg>