<?xml version="1.0" standalone="no"?><!DOCTYPE svg PUBLIC "-//W3C//DTD SVG 1.1//EN" "http://www.w3.org/Graphics/SVG/1.1/DTD/svg11.dtd"><svg t="1593411882819" class="icon" viewBox="0 0 1024 1024" version="1.1" xmlns="http://www.w3.org/2000/svg" p-id="2488" xmlns:xlink="http://www.w3.org/1999/xlink" width="200" height="200"><defs><style type="text/css"></style></defs><path d="M895.232 179.968c21.312 20.992 32.256 47.232 32.832 78.72v554.752c-0.576 31.488-11.52 57.856-32.832 79.168s-47.68 32.256-79.168 32.832H200c-31.488-0.576-57.92-11.52-79.168-32.832-21.312-21.312-32.256-47.68-32.832-79.168V258.752c0.576-31.488 11.52-57.728 32.832-78.72 21.312-20.992 47.68-32.064 79.168-33.28h128.64v62.144c0.576 16.896 5.824 30.336 15.744 40.256 9.92 9.92 23.296 15.168 40.256 15.744h246.72c16.896-0.576 30.336-5.824 40.256-15.744 9.92-9.92 15.168-23.296 15.744-40.256v-62.144h128.64c31.552 1.152 57.92 12.224 79.232 33.216z m-213.504 592.384c6.144-8.192 8-16.896 5.696-26.24-8.768-25.664-22.016-45.952-39.808-60.8-17.792-14.848-38.08-22.592-60.8-23.168h-11.392c-22.72 11.072-45.184 16.64-67.392 16.64-22.144 0-44.608-5.568-67.392-16.64h-11.392c-22.72 0.576-43.584 8.32-62.592 23.168-18.944 14.848-31.68 35.136-38.08 60.8-2.368 11.648-0.448 21.12 5.696 28.416 6.144 7.296 13.568 10.944 22.336 10.944h302.72c8.832-0.576 16.256-4.928 22.4-13.12z m-50.304-630.848v61.248h-240.64v-61.248c0-16.896 4.928-30.464 14.848-40.704 9.92-10.176 23.616-15.296 41.152-15.296h122.496c17.472 0 31.232 5.12 41.152 15.296 9.92 10.24 14.848 23.744 14.848 40.704h6.144zM424 429.376c-21.568 22.72-32.704 49.856-33.28 81.344 0.576 32.064 12.224 59.52 35.008 82.24s50.176 34.688 82.24 35.904c32.064-0.576 59.52-11.84 82.24-33.664s34.432-49.984 35.008-84.416c-0.576-31.488-11.648-58.624-33.28-81.344-21.568-22.72-49.6-34.688-83.968-35.904-34.368 1.152-62.4 13.056-83.968 35.84z" p-id="2489"></path></svg>