<?xml version="1.0" standalone="no"?><!DOCTYPE svg PUBLIC "-//W3C//DTD SVG 1.1//EN" "http://www.w3.org/Graphics/SVG/1.1/DTD/svg11.dtd"><svg t="1593411802009" class="icon" viewBox="0 0 1024 1024" version="1.1" xmlns="http://www.w3.org/2000/svg" p-id="1746" xmlns:xlink="http://www.w3.org/1999/xlink" width="200" height="200"><defs><style type="text/css"></style></defs><path d="M320 704h-32a32.064 32.064 0 0 1-32-32c0-17.6 14.4-32 32-32H320c17.6 0 32 14.4 32 32s-14.4 32-32 32z m0-192h-32a32.064 32.064 0 0 1-32-32c0-17.6 14.4-32 32-32H320c17.6 0 32 14.4 32 32S337.6 512 320 512z m416 192H448a32.064 32.064 0 0 1-32-32c0-17.6 14.4-32 32-32h288c17.6 0 32 14.4 32 32s-14.4 32-32 32z m0-192H448a32.064 32.064 0 0 1-32-32c0-17.6 14.4-32 32-32h288c17.6 0 32 14.4 32 32s-14.4 32-32 32z m128 384h-704c-52.8 0-96-43.2-96-96v-512C64 235.2 107.2 192 160 192h128c17.6 0 32 14.4 32 32s-14.4 32-32 32h-128c-17.6 0-32 14.4-32 32v512c0 17.6 14.4 32 32 32h704c17.6 0 32-14.4 32-32v-512c0-17.6-14.4-32-32-32h-128a32.064 32.064 0 0 1-32-32c0-17.6 14.4-32 32-32h128c52.8 0 96 43.2 96 96v512c0 52.8-43.2 96-96 96zM528 352h-32c-52.8 0-96-43.2-96-96V128c0-52.8 43.2-96 96-96h32c52.8 0 96 43.2 96 96v128c0 52.8-43.2 96-96 96z m-32-256c-17.6 0-32 14.4-32 32v128c0 17.6 14.4 32 32 32h32c17.6 0 32-14.4 32-32V128c0-17.6-14.4-32-32-32h-32z" p-id="1747"></path></svg>