<?xml version="1.0" standalone="no"?><!DOCTYPE svg PUBLIC "-//W3C//DTD SVG 1.1//EN" "http://www.w3.org/Graphics/SVG/1.1/DTD/svg11.dtd"><svg t="1595992185898" class="icon" viewBox="0 0 1024 1024" version="1.1" xmlns="http://www.w3.org/2000/svg" p-id="2122" xmlns:xlink="http://www.w3.org/1999/xlink" width="200" height="200"><defs><style type="text/css"></style></defs><path d="M787.692 275.692V78.77C787.692 35.446 752.246 0 708.923 0H78.77C35.446 0 0 35.446 0 78.77v866.46C0 988.555 35.446 1024 78.77 1024h354.46v-39.385H78.77c-19.693 0-39.385-15.753-39.385-39.384V78.769c0-23.63 15.753-39.384 39.384-39.384h630.154c19.692 0 39.385 15.753 39.385 39.384v196.923h39.384z" p-id="2123"></path><path d="M137.846 472.615H334.77c11.816 0 19.693 7.877 19.693 19.693S346.585 512 334.769 512H137.846c-11.815 0-19.692-7.877-19.692-19.692s7.877-19.693 19.692-19.693z m0 196.923H256c11.815 0 19.692 7.877 19.692 19.693s-7.877 19.692-19.692 19.692H137.846c-11.815 0-19.692-7.877-19.692-19.692s7.877-19.693 19.692-19.693z m0-393.846h354.462c11.815 0 19.692 7.877 19.692 19.693s-7.877 19.692-19.692 19.692H137.846c-11.815 0-19.692-7.877-19.692-19.692s7.877-19.693 19.692-19.693zM716.8 433.231c7.877 0 19.692 0 31.508 3.938 0 3.939 3.938 11.816 3.938 19.693 3.939 23.63 11.816 63.015 55.139 78.769 7.877 3.938 15.753 3.938 19.692 3.938 31.508 0 51.2-19.692 66.954-35.446l11.815-11.815c43.323 19.692 66.954 51.2 70.892 98.461-3.938 3.939-11.815 7.877-19.692 7.877-15.754 7.877-51.2 27.57-51.2 70.892s39.385 63.016 63.016 74.831c3.938 3.939 11.815 7.877 19.692 7.877-3.939 47.262-27.57 74.83-74.83 98.462l-11.816-11.816c-15.754-15.754-35.446-31.507-66.954-31.507-7.877 0-15.754 0-23.63 3.938-43.324 11.815-51.2 51.2-55.14 74.83 0 3.94-3.938 11.816-3.938 15.755-11.815 0-19.692 3.938-31.508 3.938-35.446 0-63.015-11.815-86.646-39.384 0-3.939 3.939-11.816 7.877-15.754 11.816-23.631 31.508-59.077 3.939-94.523-7.877-11.816-27.57-27.57-63.016-27.57-11.815 0-19.692 0-31.507 3.939-7.877 0-15.754 3.938-19.693 3.938-23.63-43.323-23.63-78.769 0-122.092 3.939 0 11.816 0 19.693 3.938 7.877 0 19.692 3.939 31.507 3.939 31.508 0 51.2-15.754 63.016-27.57 27.569-35.445 7.877-74.83-3.939-94.522-3.938-3.939-7.877-11.816-7.877-15.754 23.631-39.385 51.2-51.2 82.708-51.2m0-39.385c-47.262 0-82.708 19.692-118.154 55.139-27.57 31.507 35.446 78.769 11.816 110.277-7.877 11.815-19.693 11.815-31.508 11.815-15.754 0-35.446-3.939-51.2-3.939-11.816 0-23.63 3.939-31.508 15.754-31.508 55.139-31.508 110.277 0 169.354C504.123 764.062 515.938 768 527.754 768c15.754 0 35.446-3.938 51.2-3.938 11.815 0 23.63 3.938 31.508 11.815 23.63 35.446-43.324 78.77-11.816 110.277 35.446 39.384 74.83 55.138 122.092 55.138 11.816 0 27.57 0 43.324-3.938 43.323-7.877 19.692-78.77 59.076-94.523h7.877c31.508 0 51.2 47.261 78.77 47.261 3.938 0 7.877 0 11.815-3.938 63.015-27.57 94.523-70.892 102.4-133.908 3.938-43.323-78.77-43.323-78.77-82.708 0-43.323 82.708-39.384 78.77-82.707-7.877-63.016-39.385-110.277-102.4-133.908-3.938 0-7.877-3.938-11.815-3.938-31.508 0-51.2 51.2-82.708 51.2H819.2c-39.385-11.816-15.754-86.647-59.077-98.462-15.754-7.877-27.57-7.877-43.323-7.877z" p-id="2124"></path><path d="M748.308 590.77c43.323 0 78.769 35.445 78.769 78.768s-35.446 78.77-78.77 78.77-78.769-35.446-78.769-78.77 35.447-78.769 78.77-78.769m0-39.384c-66.954 0-118.154 51.2-118.154 118.153s51.2 118.154 118.154 118.154 118.154-51.2 118.154-118.154-51.2-118.153-118.154-118.153z" p-id="2125"></path></svg>