<?xml version="1.0" standalone="no"?><!DOCTYPE svg PUBLIC "-//W3C//DTD SVG 1.1//EN" "http://www.w3.org/Graphics/SVG/1.1/DTD/svg11.dtd"><svg t="1589769145297" class="icon" viewBox="0 0 1024 1024" version="1.1" xmlns="http://www.w3.org/2000/svg" p-id="4388" xmlns:xlink="http://www.w3.org/1999/xlink" width="200" height="200"><defs><style type="text/css"></style></defs><path d="M303.9232 864.8704l-45.3632 45.3632a51.2 51.2 0 0 1-72.3968 0l-72.3968-72.3968a51.2 51.2 0 0 1 0-72.3968l45.3632-45.3632A407.1424 407.1424 0 0 1 115.3024 614.4H51.2a51.2 51.2 0 0 1-51.2-51.2V460.8a51.2 51.2 0 0 1 51.2-51.2h64.1024c9.6768-37.5808 24.576-73.0624 43.8272-105.6768l-45.3632-45.3632a51.2 51.2 0 0 1 0-72.3968l72.3968-72.3968a51.2 51.2 0 0 1 72.3968 0l45.3632 45.3632A407.1424 407.1424 0 0 1 409.6 115.3024V51.2a51.2 51.2 0 0 1 51.2-51.2h102.4a51.2 51.2 0 0 1 51.2 51.2v64.1024c37.5808 9.6768 73.0624 24.576 105.6768 43.8272l45.3632-45.3632a51.2 51.2 0 0 1 72.3968 0l72.3968 72.3968a51.2 51.2 0 0 1 0 72.3968l-45.3632 45.3632c19.3024 32.6144 34.1504 68.096 43.8272 105.6768H972.8a51.2 51.2 0 0 1 51.2 51.2v102.4a51.2 51.2 0 0 1-51.2 51.2h-64.1024a407.1424 407.1424 0 0 1-43.8272 105.6768l45.3632 45.3632a51.2 51.2 0 0 1 0 72.3968l-72.3968 72.3968a51.2 51.2 0 0 1-72.3968 0l-45.3632-45.3632a407.1424 407.1424 0 0 1-105.6768 43.8272V972.8a51.2 51.2 0 0 1-51.2 51.2H460.8a51.2 51.2 0 0 1-51.2-51.2v-64.1024a407.1424 407.1424 0 0 1-105.6768-43.8272zM512 716.8a204.8 204.8 0 1 0 0-409.6 204.8 204.8 0 0 0 0 409.6z" p-id="4389"></path></svg>