<?xml version="1.0" standalone="no"?><!DOCTYPE svg PUBLIC "-//W3C//DTD SVG 1.1//EN" "http://www.w3.org/Graphics/SVG/1.1/DTD/svg11.dtd"><svg t="1599640080959" class="icon" viewBox="0 0 1024 1024" version="1.1" xmlns="http://www.w3.org/2000/svg" p-id="5646" xmlns:xlink="http://www.w3.org/1999/xlink" width="200" height="200"><defs><style type="text/css"></style></defs><path d="M896 211.456h-192V145.92c0-36.352-28.672-65.536-64-65.536H384c-35.328 0-64 29.184-64 65.536v65.536H128c-70.656 0-128 58.368-128 130.56v470.528c0 72.192 57.344 130.56 128 130.56h768c70.656 0 128-58.368 128-130.56V342.016c0-72.192-57.344-130.56-128-130.56zM384 178.688c0-17.92 14.336-32.768 32.256-32.768h192c17.92 0 32.256 14.336 32.256 32.768v32.768H384v-32.768z m537.6 329.216c0 16.896-13.824 30.72-30.72 30.72h-230.4V629.76c0 48.128-38.912 87.04-87.04 87.04H450.56c-48.128 0-87.04-38.912-87.04-87.04v-91.136H133.12c-16.896 0-30.72-13.824-30.72-30.72V506.88c0-16.896 13.824-30.72 30.72-30.72h236.032c12.288-32.768 44.032-56.32 81.408-56.32h122.88c37.376 0 69.12 23.552 81.408 56.32H890.88c16.896 0 30.72 13.824 30.72 30.72v1.024z" p-id="5647"></path><path d="M573.44 655.36H450.56c-14.336 0-25.6-11.776-25.6-25.6V506.88c0-14.336 11.776-25.6 25.6-25.6h122.88c14.336 0 25.6 11.776 25.6 25.6v122.88c0 13.824-11.264 25.6-25.6 25.6z" p-id="5648"></path></svg>