<?xml version="1.0" standalone="no"?><!DOCTYPE svg PUBLIC "-//W3C//DTD SVG 1.1//EN" "http://www.w3.org/Graphics/SVG/1.1/DTD/svg11.dtd"><svg t="1590374939185" class="icon" viewBox="0 0 1024 1024" version="1.1" xmlns="http://www.w3.org/2000/svg" p-id="4486" xmlns:xlink="http://www.w3.org/1999/xlink" width="200" height="200"><defs><style type="text/css"></style></defs><path d="M968.15999999 785.12l-38.88-7.68c-4.32-0.96-8.16-3.84-9.6-8.16-1.44-3.36-2.88-7.2-4.32-10.56-1.92-3.84-1.44-8.64 0.96-12.48l22.08-33.12c3.36-5.28 2.88-12-1.44-16.32l-21.12-21.12c-4.32-4.32-11.04-4.8-16.32-1.44l-33.12 22.08c-3.84 2.4-8.64 2.88-12.48 0.96-3.36-1.44-6.72-2.88-10.56-4.32-4.32-1.44-7.2-5.28-8.16-9.6l-7.68-38.88c-0.96-5.76-6.24-10.08-12.48-10.08h-30.24c-6.24 0-11.52 4.32-12.48 10.08l-7.68 38.88c-0.96 4.32-3.84 8.16-8.16 9.6-3.36 1.44-7.2 2.88-10.56 4.32-3.84 1.92-8.64 1.44-12.48-0.96l-33.12-22.08c-5.28-3.36-12-2.88-16.32 1.44l-21.12 21.12c-4.32 4.32-4.8 11.04-1.44 16.32l22.08 33.12c2.4 3.84 2.88 8.64 0.96 12.48-1.44 3.36-2.88 6.72-4.32 10.56-1.44 4.32-5.28 7.2-9.6 8.16l-38.88 7.68c-5.76 0.96-10.08 6.24-10.08 12.48v30.24c0 6.24 4.32 11.52 10.08 12.48l38.88 7.68c4.32 0.96 8.16 3.84 9.6 8.16 1.44 3.36 2.88 7.2 4.32 10.56 1.92 3.84 1.44 8.64-0.96 12.48l-22.08 33.12c-3.36 5.28-2.88 12 1.44 16.32l21.12 21.12c4.32 4.32 11.04 4.8 16.32 1.44l33.12-22.08c3.84-2.4 8.64-2.88 12.48-0.96 3.36 1.44 6.72 2.88 10.56 4.32 4.32 1.44 7.2 5.28 8.16 9.6l7.68 38.88c0.96 5.76 6.24 10.08 12.48 10.08h30.24c6.24 0 11.52-4.32 12.48-10.08l7.68-38.88c0.96-4.32 3.84-8.16 8.16-9.6 3.36-1.44 7.2-2.88 10.56-4.32 3.84-1.92 8.64-1.44 12.48 0.96l33.12 22.08c5.28 3.36 12 2.88 16.32-1.44l21.12-21.12c4.32-4.32 4.8-11.04 1.44-16.32l-22.08-33.12c-2.4-3.84-2.88-8.64-0.96-12.48 1.44-3.36 2.88-6.72 4.32-10.56 1.44-4.32 5.28-7.2 9.6-8.16l38.88-7.68c5.76-0.96 10.08-6.24 10.08-12.48v-30.24c0.48-5.76-3.84-11.04-10.08-12.48zM853.91999999 867.2c-29.76 29.76-78.72 29.76-108.48 0-29.76-29.76-29.76-78.72 0-108.48 29.76-29.76 78.72-29.76 108.48 0 14.4 14.4 22.56 34.08 22.56 54.24 0 20.16-8.16 39.84-22.56 54.24z" p-id="4487"></path><path d="M642.23999999 657.44c0.48-0.96-1.92-1.44-2.88-2.4-8.64-8.16-15.36-17.76-20.64-28.32-4.32-9.12-6.72-19.2-7.68-29.28-0.48-9.6 0-19.68 1.92-29.28 0.96-12.48 6.24-24.48 14.4-34.08 9.12-8.16 18.24-16.32 27.84-24.48 5.28-5.28 10.08-11.52 13.44-18.72 3.84-8.16 7.2-15.84 10.08-24.48 2.88-10.08 6.24-20.16 8.64-30.72 6.24-1.92 12-5.76 16.8-10.56 5.28-5.28 10.08-11.52 13.44-18.72 4.32-10.08 6.72-21.12 7.68-32.16 0.96-8.64 0.96-17.28-0.96-25.92-0.96-5.76-2.88-11.52-5.28-17.28-2.4-4.8-5.76-9.12-10.08-12.48 0-25.92-1.44-51.84-4.8-77.28-3.36-23.52-8.16-47.04-14.88-70.08-7.2-24.48-18.72-47.04-34.08-67.2-7.68-10.08-16.8-19.2-27.36-26.88-12.48-9.6-25.92-17.28-39.84-24-15.36-7.2-31.68-12.96-48-16.8C523.19999999 34.4 505.91999999 32 488.63999999 32c-14.4 0-28.32 0.96-42.72 3.36-15.36 2.4-30.24 6.72-44.16 12.96-15.36 6.72-29.76 15.84-43.2 26.4-14.88 12.48-27.84 26.88-38.4 43.2-12.96 19.2-22.56 40.32-28.32 62.88-5.76 21.6-10.08 43.68-12.96 65.76-2.88 24-4.32 48.48-3.84 72.48-5.28 5.76-9.12 12.48-12 20.16-2.4 7.2-4.32 14.88-4.8 23.04-0.96 10.08 0.48 20.16 3.84 29.28 1.92 8.64 5.76 17.28 10.56 24.96 3.36 4.8 7.2 9.6 12 13.44 3.84 2.88 8.16 5.28 12.48 6.72 2.88 10.08 5.76 20.16 8.64 30.72l10.08 24.48c2.88 6.72 7.2 13.44 12.48 18.72 9.6 8.16 19.2 17.28 27.84 26.4 8.64 9.6 13.92 22.08 14.4 35.04 0.96 10.08 0.96 19.2 0.96 27.84 0 8.16-1.44 16.32-4.8 24-3.36 8.64-8.16 16.32-14.4 23.04-8.16 9.12-18.24 17.28-28.8 24-16.8 11.04-36 19.68-55.68 24.96-20.64 5.76-40.8 12-60.48 19.68-18.72 6.72-36 16.8-50.88 29.28-15.36 13.92-24.96 33.12-26.4 53.76-5.76 33.6-7.2 67.2-3.84 101.28 0 16.8 4.8 33.12 13.92 46.56 7.68 4.8 16.8 8.16 25.92 9.6 13.92 3.36 30.72 6.24 50.4 9.6s41.76 6.24 66.24 9.12c24.48 2.88 48.96 5.28 72.96 7.68 24.48 2.4 48 3.84 71.52 5.28 23.04 1.44 43.2 1.92 60.48 1.92 17.28 0 37.92-0.48 61.44-1.92 24.96-1.44 49.44-2.88 74.4-5.28 9.6-0.96 28.32-2.88 28.32-2.88-51.84-66.24-95.52-202.08-9.6-322.08z" p-id="4488"></path></svg>