<?xml version="1.0" standalone="no"?><!DOCTYPE svg PUBLIC "-//W3C//DTD SVG 1.1//EN" "http://www.w3.org/Graphics/SVG/1.1/DTD/svg11.dtd"><svg t="1644808008527" class="icon" viewBox="0 0 1024 1024" version="1.1" xmlns="http://www.w3.org/2000/svg" p-id="5991" xmlns:xlink="http://www.w3.org/1999/xlink" width="200" height="200"><defs><style type="text/css"></style></defs><path d="M958.9 585.8c0-22.7-18.3-41-41-41H589.1c-22.7 0-41 18.3-41 41v328.8c0 22.7 18.3 41 41 41h328.8c22.7 0 41-18.3 41-41V585.8z m-479.1 0c0-22.7-18.3-41-41-41H110c-22.7 0-41 18.5-41 41v328.8c0 22.7 18.3 41 41 41h328.8c22.7 0 41-18.3 41-41V585.8z m0-479.2c0-22.7-18.3-41-41-41H110c-22.7 0-41 18.3-41 41v328.8c0 22.7 18.3 41 41 41h328.8c22.7 0 41-18.3 41-41V106.6z m280.1-33.3c-10.3-10.3-27.2-10.3-37.5 0L531.1 264.7c-10.3 10.3-10.3 27.2 0 37.5l191.3 191.3c10.3 10.3 27.2 10.3 37.5 0l191.3-191.3c10.3-10.3 10.3-27.2 0-37.5L759.9 73.3z m0 0" p-id="5992"></path></svg>