<?xml version="1.0" standalone="no"?><!DOCTYPE svg PUBLIC "-//W3C//DTD SVG 1.1//EN" "http://www.w3.org/Graphics/SVG/1.1/DTD/svg11.dtd"><svg t="1644808106674" class="icon" viewBox="0 0 1024 1024" version="1.1" xmlns="http://www.w3.org/2000/svg" p-id="7577" xmlns:xlink="http://www.w3.org/1999/xlink" width="200" height="200"><defs><style type="text/css"></style></defs><path d="M832 928H192c-52.8 0-96-43.2-96-96V672c0-17.6 14.4-32 32-32s32 14.4 32 32v160c0 17.6 14.4 32 32 32h640c17.6 0 32-14.4 32-32V672c0-17.6 14.4-32 32-32s32 14.4 32 32v160c0 52.8-43.2 96-96 96zM256 800c-17.6 0-32-14.4-32-32V96c0-17.6 14.4-32 32-32s32 14.4 32 32v672c0 17.6-14.4 32-32 32z m160 0c-17.6 0-32-14.4-32-32V224c0-17.6 14.4-32 32-32s32 14.4 32 32v544c0 17.6-14.4 32-32 32z m368 0c-16 0-28.8-11.2-32-27.2l-94.4-536c-3.2-17.6 8-33.6 25.6-36.8 17.6-3.2 33.6 8 36.8 25.6l94.4 536c3.2 17.6-8 33.6-25.6 36.8-1.6 1.6-3.2 1.6-4.8 1.6z m-208 0c-17.6 0-32-14.4-32-32V352c0-17.6 14.4-32 32-32s32 14.4 32 32v416c0 17.6-14.4 32-32 32z" p-id="7578"></path></svg>