<?xml version="1.0" standalone="no"?><!DOCTYPE svg PUBLIC "-//W3C//DTD SVG 1.1//EN" "http://www.w3.org/Graphics/SVG/1.1/DTD/svg11.dtd"><svg t="1600745867385" class="icon" viewBox="0 0 1024 1024" version="1.1" xmlns="http://www.w3.org/2000/svg" p-id="5535" xmlns:xlink="http://www.w3.org/1999/xlink" width="200" height="200"><defs><style type="text/css"></style></defs><path d="M916.107636 114.967273H110.778182a62.836364 62.836364 0 0 0-62.789818 62.789818v686.778182c0 34.629818 28.16 62.836364 62.789818 62.836363h805.329454c34.629818 0 62.836364-28.16 62.836364-62.836363V177.710545a62.929455 62.929455 0 0 0-62.836364-62.743272z m-7.028363 69.818182v62.650181h-791.272728V184.785455h791.272728z m-791.272728 672.721454V317.207273h791.272728v540.253091h-791.272728z m506.88-472.064L460.660364 821.061818a34.909091 34.909091 0 1 1-65.349819-24.669091l163.979637-435.572363a34.955636 34.955636 0 0 1 65.396363 24.622545zM341.969455 549.236364l-68.00291 68.002909 68.00291 68.049454a34.909091 34.909091 0 0 1-49.338182 49.384728l-92.718546-92.718546a34.862545 34.862545 0 0 1 0-49.338182l92.718546-92.672a34.909091 34.909091 0 0 1 49.338182 49.291637z m485.701818-29.882182a34.909091 34.909091 0 0 1 0 49.384727l-92.718546 92.718546a34.816 34.816 0 0 1-49.338182 0 34.909091 34.909091 0 0 1 0-49.384728l68.049455-68.049454-68.049455-68.049455a34.909091 34.909091 0 1 1 49.384728-49.384727l92.672 92.765091z" p-id="5536"></path></svg>