<?xml version="1.0" standalone="no"?><!DOCTYPE svg PUBLIC "-//W3C//DTD SVG 1.1//EN" "http://www.w3.org/Graphics/SVG/1.1/DTD/svg11.dtd"><svg t="1602730089437" class="icon" viewBox="0 0 1088 1024" version="1.1" xmlns="http://www.w3.org/2000/svg" p-id="2195" xmlns:xlink="http://www.w3.org/1999/xlink" width="212.5" height="200"><defs><style type="text/css"></style></defs><path d="M352.576 799.424l-28.576 28.576q-5.728 5.728-13.152 5.728t-13.152-5.728l-266.272-266.272q-5.728-5.728-5.728-13.152t5.728-13.152l266.272-266.272q5.728-5.728 13.152-5.728t13.152 5.728l28.576 28.576q5.728 5.728 5.728 13.152t-5.728 13.152l-224.576 224.576 224.576 224.576q5.728 5.728 5.728 13.152t-5.728 13.152zM690.272 189.728l-213.152 737.728q-2.272 7.424-8.864 11.136t-13.44 1.44l-35.424-9.728q-7.424-2.272-11.136-8.864t-1.44-14.016l213.152-737.728q2.272-7.424 8.864-11.136t13.44-1.44l35.424 9.728q7.424 2.272 11.136 8.864t1.44 14.016zM1065.728 561.728l-266.272 266.272q-5.728 5.728-13.152 5.728t-13.152-5.728l-28.576-28.576q-5.728-5.728-5.728-13.152t5.728-13.152l224.576-224.576-224.576-224.576q-5.728-5.728-5.728-13.152t5.728-13.152l28.576-28.576q5.728-5.728 13.152-5.728t13.152 5.728l266.272 266.272q5.728 5.728 5.728 13.152t-5.728 13.152z" p-id="2196"></path></svg>