<?xml version="1.0" standalone="no"?><!DOCTYPE svg PUBLIC "-//W3C//DTD SVG 1.1//EN" "http://www.w3.org/Graphics/SVG/1.1/DTD/svg11.dtd"><svg t="1600745967079" class="icon" viewBox="0 0 1024 1024" version="1.1" xmlns="http://www.w3.org/2000/svg" p-id="6464" xmlns:xlink="http://www.w3.org/1999/xlink" width="200" height="200"><defs><style type="text/css"></style></defs><path d="M342.72 745.28a32 32 0 1 0 0 45.44 32 32 0 0 0 0-45.44z m45.12-45.12a96 96 0 1 1-135.68 0 96 96 0 0 1 135.68 0z" p-id="6465"></path><path d="M928 736a32 32 0 0 1 0 64H384a32 32 0 0 1 0-64z m-672 0a32 32 0 0 1 0 64H96a32 32 0 0 1 0-64z m425.28-246.72a32 32 0 1 0 45.44 0 32 32 0 0 0-45.44 0z m90.56 90.56a96 96 0 1 1 0-135.68 96 96 0 0 1 0 135.68z" p-id="6466"></path><path d="M928 480a32 32 0 0 1 0 64H768a32 32 0 0 1 0-64z m-288 0a32 32 0 0 1 0 64H96a32 32 0 0 1 0-64zM342.72 233.28a32 32 0 1 0 0 45.44 32 32 0 0 0 0-45.44z m45.12-45.12a96 96 0 1 1-135.68 0 96 96 0 0 1 135.68 0z" p-id="6467"></path><path d="M928 224a32 32 0 0 1 0 64H384a32 32 0 0 1 0-64z m-672 0a32 32 0 0 1 0 64H96a32 32 0 0 1 0-64z" p-id="6468"></path></svg>