<?xml version="1.0" standalone="no"?><!DOCTYPE svg PUBLIC "-//W3C//DTD SVG 1.1//EN" "http://www.w3.org/Graphics/SVG/1.1/DTD/svg11.dtd"><svg t="1638328902395" class="icon" viewBox="0 0 1024 1024" version="1.1" xmlns="http://www.w3.org/2000/svg" p-id="18278" xmlns:xlink="http://www.w3.org/1999/xlink" width="200" height="200"><defs><style type="text/css"></style></defs><path d="M896 608H128c-35.34 0-64 28.66-64 64v64c0 35.34 28.66 64 64 64h768c35.34 0 64-28.66 64-64v-64c0-35.34-28.66-64-64-64z m0-384H128c-35.34 0-64 28.66-64 64v64c0 35.34 28.66 64 64 64h768c35.34 0 64-28.66 64-64v-64c0-35.34-28.66-64-64-64z" p-id="18279"></path></svg>