<?xml version="1.0" standalone="no"?><!DOCTYPE svg PUBLIC "-//W3C//DTD SVG 1.1//EN" "http://www.w3.org/Graphics/SVG/1.1/DTD/svg11.dtd"><svg t="1601437766074" class="icon" viewBox="0 0 1024 1024" version="1.1" xmlns="http://www.w3.org/2000/svg" p-id="2849" xmlns:xlink="http://www.w3.org/1999/xlink" width="200" height="200"><defs><style type="text/css"></style></defs><path d="M384 256 512 256 512 192 192 192 192 256 320 256 320 768 192 768 192 832 512 832 512 768 384 768 384 256ZM127.619858 0 1024 0 1024 1024 127.619858 1024C57.137357 1024 0 966.751117 0 896.380141L0 127.619858C0 57.137357 57.24888 0 127.619858 0ZM64 896.380141C64 931.452058 94.568632 960 132.164133 960L1024 960 1024 64 132.164133 64C94.587084 64 64 92.530723 64 127.619858L64 896.380141Z" p-id="2850"></path></svg>