<?xml version="1.0" standalone="no"?><!DOCTYPE svg PUBLIC "-//W3C//DTD SVG 1.1//EN" "http://www.w3.org/Graphics/SVG/1.1/DTD/svg11.dtd"><svg t="1638328774448" class="icon" viewBox="0 0 1024 1024" version="1.1" xmlns="http://www.w3.org/2000/svg" p-id="16914" xmlns:xlink="http://www.w3.org/1999/xlink" width="200" height="200"><defs><style type="text/css"></style></defs><path d="M931.752528 636.94978 154.701896 636.94978c-0.064468 0-0.12689 0.004093-0.190335 0.005117l21.643949-21.623483c10.006911-9.997702 10.015098-26.213012 0.017396-36.220946-9.997702-10.005888-26.215058-10.016121-36.220946-0.017396l-65.411779 65.349357c-4.808516 4.803399-7.510044 11.32186-7.510044 18.11866 0 6.797823 2.701528 13.31526 7.510044 18.119683l65.411779 65.347311c4.999874 4.994758 11.55108 7.491625 18.101263 7.491625 6.558369 0 13.117762-2.503007 18.119683-7.510044 9.997702-10.006911 9.989515-26.224268-0.01842-36.220946l-21.643949-21.623483c0.064468 0.001023 0.127913 0.005117 0.191358 0.005117l777.051655 0c14.145162 0 25.611308-11.466146 25.611308-25.611308S945.897689 636.94978 931.752528 636.94978zM129.095705 662.778028l-0.215918-0.215918 0.215918-0.215918c0 0.071631-0.005117 0.143263-0.005117 0.214894C129.089565 662.633742 129.094682 662.706397 129.095705 662.778028zM92.641445 386.331859l777.053702 0c0.063445 0 0.124843-0.004093 0.188288-0.004093l-21.642926 21.62246c-10.006911 9.997702-10.014074 26.214035-0.017396 36.220946 5.002944 5.007037 11.559267 7.510044 18.11866 7.510044 6.54916 0 13.102413-2.49789 18.101263-7.492648l65.411779-65.35038c4.808516-4.803399 7.510044-11.32186 7.510044-18.119683s-2.702552-13.31526-7.510044-18.11866l-65.411779-65.346287c-10.006911-9.997702-26.224268-9.989515-36.220946 0.01842-9.996678 10.006911-9.988492 26.223245 0.01842 36.220946l21.642926 21.621437c-0.063445 0-0.124843-0.004093-0.188288-0.004093L92.641445 335.110267c-14.145162 0-25.611308 11.467169-25.611308 25.611308S78.496284 386.331859 92.641445 386.331859zM895.301338 360.50668l0.212848 0.212848-0.212848 0.212848c0-0.070608 0.005117-0.141216 0.005117-0.211824C895.306454 360.647897 895.301338 360.577289 895.301338 360.50668z" p-id="16915"></path></svg>