<?xml version="1.0" standalone="no"?><!DOCTYPE svg PUBLIC "-//W3C//DTD SVG 1.1//EN" "http://www.w3.org/Graphics/SVG/1.1/DTD/svg11.dtd"><svg t="1661227634398" class="icon" viewBox="0 0 1024 1024" version="1.1" xmlns="http://www.w3.org/2000/svg" p-id="32734" xmlns:xlink="http://www.w3.org/1999/xlink" width="200" height="200"><defs><style type="text/css"></style></defs><path d="M358.4 0h636.344C1014.24 0 1024 11.376 1024 34.136v187.728c0 22.76-9.752 34.136-29.256 34.136H358.4c-19.504 0-29.256-11.376-29.256-34.136V34.136C329.144 11.376 338.896 0 358.4 0z m182.856 384h453.488c19.504 0 29.256 11.376 29.256 34.136v187.728c0 22.76-9.752 34.136-29.256 34.136H541.256C521.76 640 512 628.624 512 605.864V418.136C512 395.376 521.752 384 541.256 384z m0 384h453.488c19.504 0 29.256 11.376 29.256 34.136v187.728c0 22.76-9.752 34.136-29.256 34.136H541.256C521.76 1024 512 1012.624 512 989.864v-187.728C512 779.376 521.752 768 541.256 768zM402.288 546.136c16.16 0 29.256-15.28 29.256-34.136 0-18.848-13.104-34.136-29.256-34.136H138.96V256h51.2c16.16 0 29.264-15.28 29.264-34.136V34.136C219.432 15.28 206.32 0 190.16 0H29.256C13.096 0 0 15.28 0 34.136v187.728C0 240.72 13.096 256 29.256 256h51.2v640c0 18.848 13.104 34.136 29.256 34.136h292.576c16.16 0 29.256-15.28 29.256-34.136 0-18.848-13.104-34.136-29.256-34.136H138.96V546.136h263.32z" p-id="32735"></path></svg>