<?xml version="1.0" standalone="no"?><!DOCTYPE svg PUBLIC "-//W3C//DTD SVG 1.1//EN" "http://www.w3.org/Graphics/SVG/1.1/DTD/svg11.dtd"><svg t="1591842665201" class="icon" viewBox="0 0 1024 1024" version="1.1" xmlns="http://www.w3.org/2000/svg" p-id="8470" xmlns:xlink="http://www.w3.org/1999/xlink" width="200" height="200"><defs><style type="text/css"></style></defs><path d="M960 768a32 32 0 0 1-32-32V512a32 32 0 0 0-32-32H576a32 32 0 0 1-32-32V339.84a32 32 0 0 1 32-32h58.24a32 32 0 0 0 32-32V32a32 32 0 0 0-32-32H389.76a32 32 0 0 0-32 32v243.84a32 32 0 0 0 32 32H448a32 32 0 0 1 32 32V448a32 32 0 0 1-32 32H128a32 32 0 0 0-32 32v223.36A32 32 0 0 1 64 768H32a32 32 0 0 0-32 32v192a32 32 0 0 0 32 32h192a32 32 0 0 0 32-32v-192a32 32 0 0 0-32-32H192a32 32 0 0 1-32-32V576a32 32 0 0 1 32-32h256a32 32 0 0 1 32 32v159.36A32 32 0 0 1 448 768h-32.64a32 32 0 0 0-32 32v192a32 32 0 0 0 32 32h192a32 32 0 0 0 32-32v-192a32 32 0 0 0-32-32H576a32 32 0 0 1-32-32V576a32 32 0 0 1 32-32h256a32 32 0 0 1 32 32v159.36a32 32 0 0 1-32 32h-32a32 32 0 0 0-32 32v192a32 32 0 0 0 32 32h192a32 32 0 0 0 32-32v-192a32 32 0 0 0-32-32z" p-id="8471"></path></svg>