<?xml version="1.0" standalone="no"?><!DOCTYPE svg PUBLIC "-//W3C//DTD SVG 1.1//EN" "http://www.w3.org/Graphics/SVG/1.1/DTD/svg11.dtd"><svg t="1644807233610" class="icon" viewBox="0 0 1024 1024" version="1.1" xmlns="http://www.w3.org/2000/svg" p-id="13759" xmlns:xlink="http://www.w3.org/1999/xlink" width="200" height="200"><defs><style type="text/css"></style></defs><path d="M1024 716.8v204.8a102.4 102.4 0 0 1-102.4 102.4h-204.8v-102.4a102.4 102.4 0 0 0-102.4-102.4 102.4 102.4 0 0 0-102.4 102.4v102.4H307.2a102.4 102.4 0 0 1-102.4-102.4v-204.8H102.4a102.4 102.4 0 0 1-102.4-102.4 102.4 102.4 0 0 1 102.4-102.4h102.4V307.2c0-56.32 46.08-102.4 102.4-102.4h204.8V102.4a102.4 102.4 0 0 1 102.4-102.4 102.4 102.4 0 0 1 102.4 102.4v102.4h204.8a102.4 102.4 0 0 1 102.4 102.4v204.8h-102.4a102.4 102.4 0 0 0-102.4 102.4 102.4 102.4 0 0 0 102.4 102.4h102.4z" p-id="13760"></path></svg>