<?xml version="1.0" standalone="no"?><!DOCTYPE svg PUBLIC "-//W3C//DTD SVG 1.1//EN" "http://www.w3.org/Graphics/SVG/1.1/DTD/svg11.dtd"><svg t="1638327006196" class="icon" viewBox="0 0 1024 1024" version="1.1" xmlns="http://www.w3.org/2000/svg" p-id="6630" xmlns:xlink="http://www.w3.org/1999/xlink" width="200" height="200"><defs><style type="text/css"></style></defs><path d="M1020.2 442.2c-4-22.2-25.4-44.8-47.6-49.8l-16.6-3.8c-39-11.8-73.6-37.6-95.6-75.6-22-38.2-27.2-81.6-17.6-121.4L848 176c6.6-21.6-2-51.4-19.4-66.2 0 0-15.6-13.2-59.6-38.6C725 46 706 39 706 39c-21.4-7.8-51.4-0.4-67 16.2l-11.6 12.4c-29.6 28-69.4 45-113.4 45s-84.2-17.2-113.8-45.4l-11.2-12c-15.4-16.6-45.6-24-67-16.2 0 0-19.2 7-63.2 32.2-44 25.6-59.4 38.8-59.4 38.8-17.4 14.6-26 44.2-19.4 66l4.8 15.8c9.4 39.8 4.4 83-17.6 121.2s-57 64.2-96.2 75.8l-16 3.6c-22 5-43.6 27.4-47.6 49.8 0 0-3.6 20-3.6 70.8s3.6 70.8 3.6 70.8c4 22.4 25.4 44.8 47.6 49.8l15.6 3.6c39.2 11.6 74.4 37.6 96.4 76 22 38.2 27.2 81.6 17.6 121.4L180 850c-6.6 21.6 2 51.4 19.4 66.2 0 0 15.6 13.2 59.6 38.6 44 25.4 63 32.2 63 32.2 21.4 7.8 51.4 0.4 67-16.2l11-11.8c29.8-28.2 69.8-45.4 114-45.4s84.4 17.4 114 45.6l11 11.8c15.4 16.6 45.6 24 67 16.2 0 0 19.2-7 63.2-32.2 44-25.4 59.4-38.6 59.4-38.6 17.4-14.6 26-44.4 19.4-66.2l-4.8-16c-9.4-39.6-4.4-82.8 17.6-120.8 22-38.2 57.2-64.4 96.4-76l15.6-3.6c22-5 43.6-27.4 47.6-49.8 0 0 3.6-20 3.6-70.8-0.2-51-3.8-71-3.8-71zM514 716.4c-112.2 0-203.4-91-203.4-203.4 0-112.2 91-203.2 203.4-203.2 112.2 0 203.4 91 203.4 203.4-0.2 112.2-91.2 203.2-203.4 203.2z m0 0" p-id="6631"></path></svg>