<?xml version="1.0" standalone="no"?><!DOCTYPE svg PUBLIC "-//W3C//DTD SVG 1.1//EN" "http://www.w3.org/Graphics/SVG/1.1/DTD/svg11.dtd"><svg t="1600742628906" class="icon" viewBox="0 0 1024 1024" version="1.1" xmlns="http://www.w3.org/2000/svg" p-id="5007" xmlns:xlink="http://www.w3.org/1999/xlink" width="200" height="200"><defs><style type="text/css"></style></defs><path d="M512 623.122963c-61.44 0-111.502222-49.967407-111.502222-111.502222 0-61.44 49.967407-111.502222 111.502222-111.502222 61.44 0 111.502222 49.967407 111.502222 111.502222 0 61.534815-49.967407 111.502222-111.502222 111.502222z m0-180.242963c-37.925926 0-68.835556 30.90963-68.835556 68.835556s30.90963 68.835556 68.835556 68.835555 68.835556-30.90963 68.835556-68.835555-30.814815-68.835556-68.835556-68.835556z" p-id="5008"></path><path d="M582.162963 793.78963l-24.272593-35.081482c38.115556-26.358519 74.903704-57.268148 109.321482-91.685926 83.057778-83.057778 143.834074-177.967407 171.045926-267.377778 25.884444-84.764444 18.204444-153.220741-21.428148-192.948148-22.755556-22.755556-54.897778-34.986667-95.288889-36.219259-40.96-1.327407-89.220741 9.102222-139.662222 29.961482l-16.308149-39.442963c56.035556-23.22963 110.459259-34.702222 157.392593-33.185186 50.915556 1.611852 93.866667 18.488889 124.112593 48.734815 26.453333 26.453333 42.382222 61.534815 47.312592 104.106667 4.551111 39.348148-0.568889 83.531852-15.17037 131.413333-29.297778 95.952593-93.771852 197.214815-181.665185 285.108148-36.503704 36.219259-75.188148 68.740741-115.38963 96.616297zM308.906667 895.715556c-2.465185 0-4.835556 0-7.205926-0.094815-51.38963-1.422222-94.625185-18.299259-125.060741-48.734815-26.453333-26.453333-42.382222-61.534815-47.312593-104.106667-4.551111-39.348148 0.568889-83.531852 15.170371-131.413333 29.297778-95.952593 93.771852-197.214815 181.665185-285.108148 34.322963-34.322963 71.016296-65.422222 109.037037-92.254815l24.651852 34.797037c-36.02963 25.505185-70.826667 54.992593-103.537778 87.608889-83.057778 83.057778-143.834074 177.967407-171.045926 267.377778-25.884444 84.764444-18.204444 153.220741 21.428148 192.948148 22.945185 22.945185 55.277037 35.176296 96.047408 36.314074 41.339259 1.137778 89.979259-9.481481 140.894815-30.814815l16.497777 39.348148c-53.380741 22.281481-105.528889 34.133333-151.229629 34.133334z" p-id="5009"></path><path d="M758.802963 465.635556c-26.358519-38.115556-57.268148-74.903704-91.685926-109.321482-83.057778-83.057778-177.967407-143.834074-267.377778-171.045926-84.66963-25.884444-153.220741-18.204444-192.948148 21.428148-22.755556 22.755556-34.986667 54.897778-36.219259 95.288889-1.327407 40.96 9.102222 89.220741 29.961481 139.662222L161.09037 457.955556c-23.22963-56.035556-34.702222-110.459259-33.185185-157.392593 1.611852-50.915556 18.488889-93.866667 48.734815-124.112593 26.453333-26.453333 61.534815-42.382222 104.106667-47.312592 39.348148-4.551111 83.531852 0.568889 131.413333 15.17037 95.952593 29.297778 197.214815 93.771852 285.108148 181.665185 36.219259 36.219259 68.740741 74.998519 96.616296 115.2l-35.081481 24.462223zM714.334815 895.715556c-31.762963 0-66.275556-5.594074-102.968889-16.782223-95.952593-29.297778-197.214815-93.771852-285.108148-181.665185-34.322963-34.322963-65.422222-71.016296-92.254815-109.037037l34.797037-24.651852c25.505185 36.02963 54.992593 70.826667 87.608889 103.537778 83.057778 83.057778 177.967407 143.834074 267.377778 171.045926 32.995556 10.05037 63.525926 15.075556 90.832592 15.075556 42.856296 0 77.842963-12.231111 102.115556-36.503704 22.945185-22.945185 35.176296-55.277037 36.314074-96.047408 1.137778-41.339259-9.481481-89.979259-30.814815-140.894814l39.348148-16.497778c23.608889 56.414815 35.460741 111.217778 34.133334 158.53037-1.422222 51.38963-18.299259 94.625185-48.734815 125.060741-26.453333 26.453333-61.534815 42.382222-104.106667 47.312593-9.291852 0.948148-18.868148 1.517037-28.539259 1.517037z" p-id="5010"></path></svg>