<?xml version="1.0" standalone="no"?><!DOCTYPE svg PUBLIC "-//W3C//DTD SVG 1.1//EN" "http://www.w3.org/Graphics/SVG/1.1/DTD/svg11.dtd"><svg t="1596681911936" class="icon" viewBox="0 0 1098 1024" version="1.1" xmlns="http://www.w3.org/2000/svg" p-id="1763" xmlns:xlink="http://www.w3.org/1999/xlink" width="214.453125" height="200"><defs><style type="text/css"></style></defs><path d="M378.249 511.995c-47.673 1.471-86.662 20.304-116.974 56.5l-59.149 0c-24.131 0-44.436-5.959-60.915-17.878-16.479-11.918-24.719-29.354-24.719-52.307 0-103.879 18.246-155.818 54.735-155.818 1.765 0 8.166 3.09 19.202 9.27 11.035 6.18 25.381 12.433 43.038 18.759 17.656 6.326 35.166 9.49 52.528 9.49 19.717 0 39.285-3.383 58.707-10.153-1.471 10.888-2.207 20.599-2.207 29.133 0 40.903 11.918 78.571 35.753 113.001zM850.999 793.175c0 35.313-10.741 63.195-32.224 83.647s-50.026 30.678-85.634 30.678l-385.793 0c-35.607 0-64.152-10.226-85.634-30.678s-32.224-48.335-32.224-83.647c0-15.596 0.515-30.825 1.545-45.686 1.03-14.861 3.09-30.899 6.18-48.113 3.09-17.215 6.989-33.18 11.698-47.892 4.708-14.714 11.035-29.06 18.98-43.038 7.945-13.978 17.067-25.897 27.368-35.753 10.3-9.858 22.88-17.73 37.74-23.616 14.861-5.886 31.267-8.828 49.218-8.828 2.943 0 9.27 3.163 18.98 9.49 9.711 6.326 20.453 13.389 32.224 21.188 11.771 7.798 27.515 14.861 47.23 21.188 19.717 6.326 39.58 9.49 59.59 9.49 20.01 0 39.874-3.163 59.59-9.49 19.717-6.326 35.459-13.389 47.23-21.188 11.771-7.798 22.512-14.861 32.224-21.188 9.71-6.326 16.038-9.49 18.98-9.49 17.951 0 34.357 2.943 49.218 8.828 14.861 5.886 27.442 13.758 37.74 23.616 10.3 9.858 19.423 21.775 27.368 35.754 7.945 13.978 14.272 28.324 18.98 43.038 4.708 14.714 8.608 30.678 11.698 47.892 3.09 17.215 5.15 33.253 6.18 48.113 1.03 14.861 1.545 30.09 1.545 45.686zM398.996 229.493c0 31.193-11.035 57.824-33.106 79.896-22.071 22.071-48.703 33.106-79.896 33.106-31.193 0-57.824-11.035-79.896-33.106-22.071-22.071-33.106-48.703-33.106-79.896 0-31.193 11.035-57.825 33.106-79.897 22.071-22.071 48.703-33.106 79.896-33.106 31.193 0 57.825 11.035 79.896 33.106 22.071 22.071 33.106 48.703 33.106 79.897zM709.748 398.996c0 46.79-16.553 86.737-49.658 119.843s-73.054 49.658-119.843 49.658c-46.79 0-86.737-16.552-119.843-49.658-33.106-33.106-49.658-73.054-49.658-119.843 0-46.79 16.553-86.737 49.658-119.843 33.106-33.106 73.054-49.658 119.843-49.658 46.79 0 86.737 16.553 119.843 49.658 33.106 33.106 49.658 73.054 49.658 119.843zM964.001 498.312c0 22.954-8.24 40.388-24.719 52.307s-36.785 17.878-60.915 17.878l-59.149 0c-30.311-36.195-69.301-55.029-116.974-56.5 23.836-34.43 35.753-72.097 35.753-113.001 0-8.535-0.735-18.246-2.207-29.133 19.423 6.769 38.991 10.153 58.707 10.153 17.362 0 34.871-3.163 52.528-9.49 17.656-6.326 32.002-12.58 43.038-18.759 11.035-6.18 17.435-9.27 19.202-9.27 36.49 0 54.735 51.939 54.735 155.818zM907.501 229.493c0 31.193-11.035 57.824-33.106 79.896-22.071 22.071-48.703 33.106-79.897 33.106-31.193 0-57.825-11.035-79.896-33.106-22.071-22.071-33.106-48.703-33.106-79.896 0-31.193 11.035-57.825 33.106-79.897 22.071-22.071 48.703-33.106 79.896-33.106 31.193 0 57.825 11.035 79.897 33.106 22.071 22.071 33.106 48.703 33.106 79.897zM907.501 229.493z" p-id="1764"></path></svg>